<svg width="540" height="540" viewBox="0 0 540 540" fill="none" xmlns="http://www.w3.org/2000/svg">
<circle cx="270" cy="270" r="270" fill="#141414"/>
<path d="M47.25 268.875C47.25 165.009 117.725 77.6422 213.392 52.1306C219.395 50.5299 225.559 54.099 227.16 60.1023C228.761 66.1055 225.191 72.2694 219.188 73.8703C133.148 96.8149 69.75 175.431 69.75 268.875C69.75 361.589 132.161 439.708 217.176 463.333L219.188 463.881L219.744 464.043C225.41 465.866 228.711 471.833 227.16 477.649C225.609 483.464 219.775 486.997 213.954 485.757L213.392 485.62L211.153 485.012C116.627 458.743 47.25 371.93 47.25 268.875ZM472.5 268.875C472.5 176.201 410.141 98.11 325.18 74.4482L331.216 52.7722C425.68 79.0803 495 165.863 495 268.875C495 371.769 425.84 458.469 331.543 484.886C325.56 486.562 319.352 483.071 317.676 477.088C316 471.105 319.492 464.897 325.474 463.221C410.286 439.461 472.5 361.443 472.5 268.875ZM317.36 60.5923C319.027 54.607 325.231 51.1057 331.216 52.7722L325.18 74.4482C319.195 72.7813 315.693 66.5776 317.36 60.5923Z" fill="#FFA335"/>
<path d="M249.581 140.498C255.794 140.498 260.831 145.535 260.831 151.748V184.177C260.831 192.875 253.78 199.927 245.081 199.927H202.516V258.75H248.625C255.46 258.75 261 264.29 261 271.125C261 277.96 255.46 283.5 248.625 283.5H202.516V340.073H245.081C253.508 340.073 260.39 346.691 260.812 355.013L260.831 355.823V389.25C260.831 395.463 255.794 400.5 249.581 400.5C243.369 400.499 238.331 395.463 238.331 389.25V362.573H191.266C185.053 362.573 180.016 357.536 180.016 351.323V188.62L180.018 188.562L180.026 188.216V188.158L180.031 188.102C180.333 182.154 185.245 177.427 191.266 177.427H238.331V151.748C238.331 145.535 243.37 140.499 249.581 140.498ZM291.254 140.685C297.004 140.977 301.616 145.587 301.908 151.339L301.924 151.919V178.596H317.326L318.535 178.611H318.563L318.592 178.613C346.328 179.317 368.596 202.02 368.596 229.924C368.595 246.488 360.736 261.202 348.571 270.58C360.313 279.631 368.041 293.657 368.566 309.516L368.596 311.245C368.596 339.149 346.328 361.852 318.592 362.556L318.563 362.558H318.535L317.326 362.573H301.924V389.25C301.924 395.269 297.197 400.182 291.254 400.484L290.674 400.5C284.655 400.5 279.741 395.773 279.439 389.83L279.424 389.25V351.266L279.426 351.209L279.435 350.861V350.805L279.439 350.747C279.741 344.8 284.654 340.073 290.674 340.073H317.212L318.069 340.062C333.618 339.639 346.096 326.898 346.096 311.245C346.095 298.042 337.212 286.909 325.09 283.5H291.122C284.288 283.5 278.747 277.96 278.747 271.125C278.747 264.29 284.288 258.75 291.122 258.75H317.27C332.94 258.749 345.691 246.244 346.087 230.669L346.096 229.924C346.096 214.271 333.618 201.528 318.069 201.104L317.212 201.096H290.674C284.842 201.096 280.049 196.66 279.48 190.976L279.439 190.422L279.435 190.364V190.308L279.426 189.96L279.424 189.903V151.919C279.424 145.706 284.461 140.669 290.674 140.669L291.254 140.685ZM288.353 395.591H288.354H288.353ZM285.466 393.544H285.465H285.466ZM243.362 391.877H243.361H243.362ZM284.228 391.257C284.26 391.363 284.295 391.468 284.333 391.571H284.334C284.296 391.468 284.26 391.363 284.228 391.258V391.257ZM284.061 390.61H284.062H284.061ZM190.919 358.064H190.918H190.919ZM185.33 354.54L185.331 354.541L185.33 354.54ZM247.893 344.928V344.927V344.928ZM289.037 344.772H289.038H289.037ZM319.807 344.478C319.251 344.519 318.692 344.548 318.129 344.562C318.692 344.548 319.251 344.519 319.807 344.478ZM337.587 337.664C337.171 337.985 336.747 338.296 336.315 338.597C336.747 338.296 337.171 337.985 337.587 337.664ZM340.559 335.083V335.084V335.083ZM349.768 318.658H349.769H349.768ZM347.423 297.037C347.617 297.448 347.802 297.863 347.979 298.282C347.802 297.863 347.617 297.448 347.423 297.037ZM357.946 288.038V288.037V288.038ZM355.991 284.913V284.912V284.913ZM336.198 283.815H336.199H336.198ZM333.914 282.37H333.915H333.914ZM327.042 279.378H327.043H327.042ZM283.257 270.72C283.25 270.854 283.247 270.989 283.247 271.125C283.247 271.261 283.25 271.396 283.257 271.53C283.25 271.396 283.247 271.261 283.247 271.125C283.247 270.989 283.25 270.854 283.257 270.72ZM286.113 265.048V265.049V265.048ZM253.337 264.814C253.511 264.945 253.678 265.083 253.841 265.227C253.678 265.083 253.511 264.945 253.337 264.814ZM252.379 264.2C252.602 264.321 252.819 264.453 253.028 264.595C252.819 264.453 252.602 264.321 252.379 264.2ZM290.316 263.291H290.317H290.316ZM325.598 262.2C325.065 262.337 324.528 262.462 323.985 262.573C324.528 262.462 325.065 262.337 325.598 262.2ZM337.844 256.142C338.473 255.647 339.085 255.13 339.677 254.592C339.085 255.13 338.473 255.647 337.844 256.142ZM345.771 247.204C345.631 247.433 345.489 247.661 345.345 247.887C345.489 247.661 345.631 247.434 345.771 247.205V247.204ZM349.097 239.834C349.178 239.573 349.256 239.311 349.331 239.048V239.047C349.256 239.311 349.178 239.573 349.097 239.834ZM334.323 201.285C334.55 201.42 334.775 201.559 334.998 201.699C334.552 201.418 334.099 201.148 333.639 200.888L334.323 201.285ZM318.97 196.639H318.971H318.97ZM287.547 195.829H287.546H287.547ZM346.688 193.49C346.975 193.722 347.259 193.958 347.54 194.196V194.195C347.259 193.957 346.975 193.721 346.688 193.489V193.49ZM187.083 183.38L187.082 183.379L187.083 183.38ZM320.835 183.23V183.229V183.23ZM297.389 151.229C297.412 151.456 297.424 151.686 297.424 151.919L297.415 151.571C297.409 151.456 297.4 151.342 297.389 151.229ZM284.061 150.559H284.062H284.061ZM285.077 148.146H285.076H285.077ZM289.646 145.247C289.422 145.281 289.203 145.326 288.987 145.382C289.203 145.326 289.422 145.281 289.646 145.247Z" fill="#FFA335"/>
</svg>
