<svg width="540" height="540" viewBox="0 0 540 540" fill="none" xmlns="http://www.w3.org/2000/svg">
<rect width="540" height="540" fill="#141414"/>
<path d="M47.251 268.875C47.251 165.009 117.726 77.6422 213.393 52.1306C219.396 50.5299 225.56 54.099 227.161 60.1023C228.762 66.1055 225.192 72.2694 219.189 73.8703C133.149 96.8149 69.751 175.431 69.751 268.875C69.751 361.589 132.162 439.708 217.177 463.333L219.189 463.881L219.745 464.043C225.411 465.866 228.712 471.833 227.161 477.649C225.61 483.464 219.776 486.997 213.955 485.757L213.393 485.62L211.154 485.012C116.628 458.743 47.251 371.93 47.251 268.875ZM472.501 268.875C472.501 176.201 410.142 98.11 325.181 74.4482L331.217 52.7722C425.681 79.0803 495.001 165.863 495.001 268.875C495.001 371.769 425.841 458.469 331.544 484.886C325.561 486.562 319.353 483.071 317.677 477.088C316.001 471.105 319.492 464.897 325.475 463.221C410.287 439.461 472.501 361.443 472.501 268.875ZM317.361 60.5923C319.028 54.607 325.232 51.1057 331.217 52.7722L325.181 74.4482C319.196 72.7813 315.694 66.5776 317.361 60.5923Z" fill="#FFA335"/>
<path d="M249.581 140.498C255.794 140.498 260.831 145.535 260.831 151.748V184.177C260.831 192.875 253.779 199.927 245.081 199.927H202.516V258.75H248.625C255.46 258.75 261 264.29 261 271.125C261 277.959 255.459 283.5 248.625 283.5H202.516V340.073H245.081C253.507 340.073 260.389 346.69 260.812 355.012L260.831 355.823V389.25C260.831 395.463 255.794 400.5 249.581 400.5C243.369 400.499 238.331 395.463 238.331 389.25V362.573H191.266C185.053 362.573 180.016 357.536 180.016 351.323V188.62L180.018 188.562L180.026 188.216V188.158L180.03 188.102C180.332 182.154 185.245 177.427 191.266 177.427H238.331V151.748C238.331 145.535 243.369 140.499 249.581 140.498ZM291.254 140.685C297.004 140.977 301.616 145.587 301.908 151.339L301.924 151.919V178.596H317.326L318.535 178.611H318.563L318.592 178.613C346.328 179.317 368.595 202.02 368.595 229.924C368.594 246.488 360.736 261.202 348.571 270.58C360.313 279.631 368.041 293.657 368.566 309.516L368.595 311.245C368.595 339.149 346.328 361.852 318.592 362.556L318.563 362.558H318.535L317.326 362.573H301.924V389.25C301.924 395.269 297.196 400.182 291.254 400.484L290.674 400.5C284.655 400.5 279.741 395.773 279.438 389.83L279.424 389.25V351.266L279.426 351.209L279.435 350.861V350.805L279.438 350.747C279.74 344.8 284.654 340.073 290.674 340.073H317.212L318.069 340.062C333.618 339.638 346.095 326.898 346.095 311.245C346.094 298.042 337.211 286.909 325.089 283.5H291.122C284.288 283.5 278.747 277.959 278.747 271.125C278.747 264.29 284.288 258.75 291.122 258.75H317.27C332.94 258.749 345.69 246.244 346.086 230.669L346.095 229.924C346.095 214.271 333.618 201.528 318.069 201.104L317.212 201.096H290.674C284.842 201.096 280.049 196.66 279.48 190.976L279.438 190.422L279.435 190.364V190.308L279.426 189.96L279.424 189.903V151.919C279.424 145.706 284.461 140.669 290.674 140.669L291.254 140.685ZM244.819 394.033C244.928 394.141 245.04 394.244 245.155 394.345C245.04 394.244 244.928 394.141 244.819 394.033ZM242.865 389.94C242.9 390.281 242.96 390.613 243.043 390.937C242.932 390.505 242.863 390.058 242.84 389.598L242.865 389.94ZM189.179 357.742C189.235 357.761 189.292 357.778 189.35 357.795C189.292 357.778 189.235 357.761 189.179 357.742ZM185.378 354.623C185.448 354.748 185.521 354.871 185.599 354.99C185.521 354.871 185.448 354.748 185.378 354.623ZM185.106 354.086C185.041 353.941 184.98 353.794 184.925 353.644C184.98 353.794 185.041 353.941 185.106 354.086ZM184.728 353.01C184.672 352.794 184.627 352.574 184.593 352.351C184.627 352.574 184.672 352.794 184.728 353.01ZM254.588 349.811C254.661 349.926 254.732 350.043 254.801 350.161C254.732 350.043 254.661 349.926 254.588 349.811ZM284.694 348.187C284.498 348.56 284.336 348.955 284.212 349.365C284.336 348.955 284.498 348.56 284.694 348.187ZM254.096 349.093V349.092V349.093ZM250.443 345.932C250.602 346.018 250.76 346.107 250.914 346.201C250.605 346.013 250.286 345.841 249.958 345.683L250.443 345.932ZM287.001 345.658C286.737 345.83 286.485 346.02 286.248 346.226C286.09 346.363 285.938 346.507 285.794 346.658L285.795 346.659C286.156 346.281 286.561 345.944 287.001 345.658ZM290.337 344.581C290.226 344.587 290.115 344.595 290.005 344.605C289.895 344.616 289.785 344.629 289.677 344.646C289.352 344.694 289.034 344.766 288.726 344.858L289.037 344.773C289.561 344.643 290.109 344.573 290.674 344.573L290.337 344.581ZM246.231 344.632V344.631V344.632ZM338.812 336.673C338.212 337.182 337.592 337.671 336.956 338.138C336.32 338.604 335.667 339.048 334.998 339.47C334.106 340.032 333.185 340.553 332.238 341.03C334.605 339.838 336.81 338.371 338.812 336.673ZM340.559 335.084C342.06 333.617 343.423 332.009 344.627 330.281C343.573 331.793 342.398 333.212 341.114 334.526C340.931 334.714 340.746 334.9 340.559 335.083V335.084ZM347.739 324.764C347.415 325.493 347.066 326.209 346.692 326.909L347.058 326.204C347.296 325.73 347.523 325.25 347.739 324.764ZM349.369 320.232C349.224 320.752 349.066 321.267 348.896 321.776L349.143 321.009C349.221 320.752 349.297 320.493 349.369 320.233V320.232ZM350.223 316.243V316.242V316.243ZM350.595 311.245C350.595 311.003 350.592 310.761 350.587 310.521C350.592 310.761 350.595 311.003 350.595 311.245C350.595 311.811 350.581 312.374 350.553 312.934L350.585 312.092C350.592 311.81 350.595 311.528 350.595 311.245ZM350.473 308.372V308.371V308.372ZM350.113 305.565V305.566V305.565ZM344.473 291.995C344.662 292.262 344.847 292.531 345.028 292.803C344.847 292.531 344.662 292.262 344.473 291.995ZM341.54 288.412C342.111 289.019 342.66 289.647 343.185 290.295C342.66 289.647 342.111 289.019 341.54 288.412ZM357.991 288.118C358.164 288.421 358.332 288.727 358.498 289.034C358.332 288.727 358.164 288.421 357.991 288.118ZM357.192 286.769V286.768V286.769ZM355.991 284.913C356.129 285.116 356.266 285.319 356.401 285.524L355.991 284.912C355.853 284.709 355.713 284.508 355.572 284.308L355.991 284.913ZM335.639 283.438C335.662 283.453 335.684 283.468 335.707 283.483C335.497 283.344 335.286 283.205 335.072 283.07L335.639 283.438ZM328.822 279.979C328.963 280.031 329.103 280.085 329.242 280.139C329.103 280.085 328.963 280.031 328.822 279.979ZM351.396 279.189V279.188V279.189ZM289.854 278.896C289.891 278.903 289.929 278.908 289.967 278.914C289.929 278.908 289.891 278.903 289.854 278.896ZM287.707 278.224C287.743 278.241 287.779 278.256 287.815 278.272C287.664 278.202 287.514 278.129 287.368 278.05L287.707 278.224ZM285.08 276.175C285.23 276.354 285.387 276.528 285.553 276.693C285.387 276.528 285.23 276.354 285.08 276.175ZM347.12 275.173V275.172V275.173ZM341.74 271.321V271.32V271.321ZM283.292 271.975C283.319 272.224 283.357 272.47 283.406 272.712C283.357 272.47 283.319 272.224 283.292 271.975ZM341.65 269.899V269.898V269.899ZM283.865 268.06C283.566 268.766 283.368 269.526 283.287 270.32C283.368 269.526 283.566 268.766 283.865 268.06ZM290.717 263.26C289.643 263.314 288.625 263.584 287.707 264.026C287.478 264.137 287.254 264.258 287.038 264.39C286.172 264.916 285.416 265.605 284.812 266.413C284.736 266.514 284.663 266.617 284.592 266.722C284.379 267.036 284.189 267.367 284.023 267.711L284.197 267.372C285.47 265.029 287.898 263.403 290.717 263.26ZM254.702 266.116C254.943 266.408 255.163 266.717 255.36 267.041C255.229 266.825 255.087 266.615 254.936 266.413C254.86 266.312 254.782 266.212 254.702 266.115V266.116ZM251.333 263.728C251.815 263.904 252.276 264.127 252.709 264.39C252.276 264.127 251.815 263.904 251.333 263.728ZM249.03 263.261V263.26V263.261ZM329.488 260.938C328.732 261.236 327.961 261.508 327.179 261.751C326.918 261.832 326.656 261.911 326.393 261.985C324.811 262.435 323.182 262.77 321.514 262.982L322.345 262.866C324.827 262.487 327.218 261.833 329.488 260.938ZM331.717 259.964C332.446 259.613 333.159 259.235 333.857 258.834C333.392 259.102 332.92 259.358 332.44 259.604C332.201 259.726 331.96 259.846 331.717 259.963V259.964ZM338.468 255.64C339.291 254.96 340.08 254.242 340.834 253.488C339.892 254.431 338.893 255.317 337.844 256.142L338.468 255.64ZM343.974 249.863C343.654 250.291 343.324 250.711 342.984 251.122L343.487 250.499C343.817 250.079 344.137 249.651 344.446 249.216L343.974 249.863ZM345.345 247.887V247.886V247.887ZM347.976 242.896C347.765 243.394 347.543 243.886 347.309 244.372L347.651 243.639C347.763 243.393 347.87 243.145 347.976 242.896ZM349.33 239.047L349.331 239.048L349.33 239.047ZM350.327 234.168C350.256 234.724 350.172 235.276 350.074 235.823L350.211 235C350.253 234.724 350.292 234.446 350.327 234.168ZM350.553 228.235C350.539 227.956 350.522 227.678 350.501 227.4V227.399C350.522 227.677 350.539 227.956 350.553 228.235ZM350.336 225.744V225.745V225.744ZM362.666 218.396C362.853 219.134 363.022 219.879 363.173 220.63L362.933 219.508C362.848 219.136 362.759 218.765 362.666 218.396ZM347.406 215.681C347.52 215.921 347.631 216.162 347.739 216.405L347.407 215.681C347.294 215.441 347.177 215.203 347.058 214.966L347.406 215.681ZM358.611 207.916C358.786 208.244 358.958 208.574 359.125 208.906C358.79 208.241 358.44 207.585 358.075 206.938L358.611 207.916ZM341.114 206.643C341.258 206.79 341.4 206.939 341.541 207.089C341.22 206.748 340.893 206.413 340.559 206.086L341.114 206.643ZM355.709 203.177C356.132 203.783 356.541 204.4 356.936 205.027L356.333 204.094C356.129 203.785 355.92 203.48 355.709 203.177ZM336.956 203.031C337.423 203.373 337.879 203.728 338.327 204.094C337.676 203.562 337.005 203.054 336.314 202.572L336.956 203.031ZM353.714 200.52V200.519V200.52ZM332.237 200.14C332.35 200.196 332.461 200.256 332.573 200.313C332.226 200.134 331.877 199.958 331.522 199.79L332.237 200.14ZM329.852 199.056C329.983 199.109 330.114 199.164 330.244 199.219C330.114 199.164 329.983 199.109 329.852 199.056ZM340.27 189.126C342.532 190.405 344.679 191.865 346.688 193.489C346.114 193.025 345.528 192.575 344.933 192.138C344.635 191.919 344.334 191.704 344.03 191.492C342.818 190.646 341.562 189.857 340.27 189.126ZM284.312 192.108C284.446 192.487 284.615 192.849 284.812 193.192C284.563 192.757 284.36 192.293 284.212 191.804L284.312 192.108ZM184.59 187.67C184.557 187.887 184.536 188.107 184.524 188.33L184.55 187.998C184.561 187.888 184.574 187.778 184.59 187.67ZM334.206 186.254C334.906 186.525 335.597 186.812 336.28 187.116C335.256 186.661 334.212 186.241 333.15 185.858L334.206 186.254ZM185.146 185.824L185.146 185.825L185.146 185.824ZM187.082 183.379C186.753 183.639 186.45 183.929 186.175 184.244C186.037 184.402 185.907 184.566 185.784 184.736C185.662 184.907 185.547 185.083 185.44 185.265L185.606 184.997C186.065 184.293 186.652 183.68 187.333 183.19L187.082 183.379ZM327.702 184.264C328.446 184.433 329.184 184.619 329.914 184.823C329.184 184.619 328.446 184.433 327.702 184.264ZM320.835 183.23V183.229V183.23ZM297.424 183.097H317.27V183.096H297.424V183.097ZM189.946 182.056C189.733 182.098 189.523 182.15 189.317 182.212C189.215 182.243 189.113 182.277 189.013 182.312C188.811 182.384 188.614 182.463 188.422 182.553C188.23 182.642 188.043 182.74 187.861 182.847V182.848C188.588 182.422 189.401 182.128 190.269 182L189.946 182.056ZM191.266 181.927V181.928V181.927ZM297.286 150.559C297.354 150.888 297.398 151.226 297.415 151.571C297.398 151.226 297.354 150.888 297.286 150.559ZM284.589 148.992C284.542 149.09 284.497 149.19 284.454 149.291C284.326 149.594 284.219 149.909 284.136 150.232L284.228 149.912C284.359 149.49 284.531 149.085 284.738 148.702V148.701C284.686 148.797 284.636 148.894 284.589 148.992ZM296.446 148.42V148.419V148.42ZM288.353 145.578C287.836 145.767 287.348 146.018 286.899 146.321C286.81 146.382 286.721 146.445 286.635 146.51C286.375 146.704 286.129 146.917 285.9 147.146C285.824 147.222 285.749 147.3 285.677 147.38C285.532 147.54 285.394 147.707 285.265 147.88C285.2 147.967 285.137 148.055 285.076 148.145V148.146C285.925 146.889 287.187 145.933 288.666 145.473L288.353 145.578ZM294.712 146.511C294.798 146.575 294.884 146.642 294.967 146.711L294.712 146.51C294.625 146.445 294.537 146.383 294.447 146.322L294.712 146.511ZM293.301 145.7C293.565 145.812 293.82 145.942 294.066 146.085C293.82 145.942 293.565 145.812 293.301 145.7ZM289.313 145.306V145.307V145.306ZM292.034 145.307L292.033 145.306L292.034 145.307ZM318.128 344.562C322.349 344.456 326.375 343.563 330.065 342.027L330.799 341.712C329.341 342.361 327.827 342.907 326.268 343.344C325.748 343.489 325.223 343.622 324.693 343.742C324.164 343.863 323.63 343.97 323.091 344.065C322.013 344.255 320.917 344.394 319.806 344.478C319.25 344.519 318.691 344.547 318.128 344.562V344.562ZM318.13 263.239C318.701 263.225 319.269 263.196 319.833 263.153V263.152C319.551 263.174 319.268 263.192 318.984 263.206C318.416 263.235 317.845 263.25 317.27 263.25L318.13 263.239Z" fill="#FFA335"/>
</svg>
